<?xml version="1.0" standalone="no"?>
<!DOCTYPE svg PUBLIC "-//W3C//DTD SVG 1.1//EN" "http://www.w3.org/Graphics/SVG/1.1/DTD/svg11.dtd" >
<svg xmlns="http://www.w3.org/2000/svg">
<metadata></metadata>
<defs>
<font id="ratio_lightlight" horiz-adv-x="1427" >
<font-face units-per-em="2048" ascent="1511" descent="-537" />
<missing-glyph horiz-adv-x="512" />
<glyph unicode="&#xfb01;" horiz-adv-x="1024" d="M80 868v62l127 18v156q0 103 30 182t82 126t116 70t138 23q52 0 104.5 -7.5t83.5 -14.5t107 -27v-166l-80 -16q-11 43 -23 67.5t-35 44.5t-60.5 27.5t-96.5 7.5q-55 0 -103 -17t-87.5 -51.5t-62.5 -94.5t-23 -140v-170h563v-948h-90v868h-473v-868h-90v868h-127z" />
<glyph unicode="&#xfb02;" horiz-adv-x="1048" d="M80 868v62l127 18v154q-2 103 28 182.5t84 126.5t122 70.5t147 23.5q126 0 291 -47v-1458h-93v1384q-107 37 -208 37q-56 0 -104 -16.5t-89 -51.5t-64.5 -96.5t-23.5 -144.5v-164h338v-80h-338v-868h-90v868h-127z" />
<glyph horiz-adv-x="2048" />
<glyph horiz-adv-x="2048" />
<glyph unicode="&#xd;" horiz-adv-x="2048" />
<glyph unicode=" "  horiz-adv-x="512" />
<glyph unicode="&#x09;" horiz-adv-x="512" />
<glyph unicode="&#xa0;" horiz-adv-x="512" />
<glyph unicode="!" horiz-adv-x="393" d="M143 0v174l107 -47v-127h-107zM143 1372h109l-10 -952l-90 26z" />
<glyph unicode="&#x22;" horiz-adv-x="626" d="M145 961v385l84 20v-385zM399 961v385l84 20v-385z" />
<glyph unicode="#" horiz-adv-x="1294" d="M94 340v80h260v368h-260v82h260v340h90v-340h400v340h88v-340h266v-82h-264v-368h268v-80h-268v-340h-90v340h-400v-340h-90v340h-260zM444 420h400v368h-400v-368z" />
<glyph unicode="$" horiz-adv-x="831" d="M102 2q3 44 9 90q115 -33 241 -33q132 0 216.5 55t84.5 160q0 48 -30 87t-78 67.5t-106 55.5t-116 58t-106 67.5t-78 91.5t-30 124q0 120 76.5 189.5t205.5 89.5v143h82v-135q96 0 217 -33q-4 -56 -8 -88q-103 33 -215 33q-53 0 -97 -9t-82.5 -30.5t-60.5 -61.5t-22 -96 q0 -54 30 -97.5t78.5 -73.5t106.5 -57t116.5 -56t107 -63t78.5 -84t30 -113q0 -123 -78 -198.5t-201 -98.5v-146h-82v137q-3 0 -13.5 -1t-19.5 -1q-39 0 -118 7.5t-138 19.5z" />
<glyph unicode="%" horiz-adv-x="1349" d="M92 883q0 114 70.5 185t179.5 71q106 0 177 -71t71 -185q0 -117 -70.5 -187.5t-177.5 -70.5q-109 0 -179.5 70t-70.5 188zM172 881q0 -89 45 -140t123 -51t124 51t46 140q0 88 -45.5 139t-124.5 51t-123.5 -51t-44.5 -139zM215 4l862 1165l64 -43l-860 -1171 q-34 27 -66 49zM758 231q0 115 70.5 185.5t179.5 70.5q107 0 177 -70.5t70 -185.5q0 -116 -69.5 -186t-177.5 -70q-109 0 -179.5 70t-70.5 186zM838 229q0 -87 45.5 -137.5t122.5 -50.5q79 0 125.5 50.5t46.5 137.5q0 89 -46 140t-126 51q-79 0 -123.5 -50.5t-44.5 -140.5z " />
<glyph unicode="&#x26;" horiz-adv-x="1468" d="M119 340q0 94 37 185.5t94 156.5l24 29q-77 151 -77 290q0 102 30.5 180t84.5 124t122.5 69t149.5 23q136 0 293 -56l-21 -274h-84l14 209q-100 35 -206 35q-39 0 -77 -9t-77 -31t-68.5 -54.5t-48 -85.5t-18.5 -119q0 -210 162 -414t415 -344q113 163 113 414v118h274 v-88h-186q0 -294 -127 -485q238 -119 490 -145q0 -16 -5 -84q-270 23 -538 155q-149 -162 -397 -162q-72 0 -137 21.5t-119 63.5t-85.5 114t-31.5 164zM215 348q0 -136 85.5 -211.5t217.5 -75.5q168 0 287 125q-156 89 -282 206t-206 245q0 -1 -2.5 -5.5t-5.5 -9.5t-4 -8 q-90 -122 -90 -266z" />
<glyph unicode="'" horiz-adv-x="372" d="M145 961v385l84 20v-385z" />
<glyph unicode="(" horiz-adv-x="608" d="M102 582q0 308 117.5 587.5t304.5 462.5l64 -51q-191 -195 -289 -460t-98 -541q0 -275 97.5 -536.5t289.5 -457.5l-64 -51q-187 183 -304.5 460.5t-117.5 586.5z" />
<glyph unicode=")" horiz-adv-x="608" d="M20 -414q191 196 289.5 461.5t98.5 540.5q0 274 -98 535.5t-290 457.5l64 51q187 -183 304.5 -460t117.5 -584q0 -308 -117.5 -589t-304.5 -464z" />
<glyph unicode="*" horiz-adv-x="880" d="M76 1245l20 60q105 -36 312 -103v328h63v-328l311 101l21 -60q-46 -15 -98 -31.5t-114.5 -37t-96.5 -31.5q26 -34 91.5 -124t102.5 -138l-51 -39l-195 266l-192 -268q-9 6 -26.5 20.5t-26.5 20.5q7 10 79 109.5t111 150.5z" />
<glyph unicode="+" horiz-adv-x="1228" d="M133 504v84h436v436h86v-436h441v-84h-441v-443h-86v443h-436z" />
<glyph unicode="," horiz-adv-x="456" d="M129 -188q26 47 37 67.5t23.5 56.5t17.5 72l-37 6v138h115q4 -20 4 -78q0 -79 -26 -146.5t-77 -146.5z" />
<glyph unicode="-" horiz-adv-x="884" d="M150 469v86h585v-86h-585z" />
<glyph unicode="." horiz-adv-x="454" d="M170 0v152h115v-152h-115z" />
<glyph unicode="/" horiz-adv-x="722" d="M63 -356l504 1894h95l-508 -1894h-91z" />
<glyph unicode="0" horiz-adv-x="1222" d="M127 512q0 256 129.5 396.5t353.5 140.5q225 0 354.5 -140t129.5 -397t-129.5 -397t-354.5 -140q-224 0 -353.5 140.5t-129.5 396.5zM225 512q0 -223 103 -338t282 -115t282 115t103 338t-103 338t-282 115t-282 -115t-103 -338z" />
<glyph unicode="1" horiz-adv-x="743" d="M94 0v80h262v862h-200v78h290v-940h232v-80h-584z" />
<glyph unicode="2" horiz-adv-x="995" d="M102 82q42 34 139.5 110.5t157.5 124.5q55 43 81.5 64t70.5 58t65.5 59.5t50.5 56t41.5 60t22.5 59t10 65.5q0 106 -82 166t-210 60q-141 0 -289 -50l-17 82q164 52 314 52q108 0 192.5 -34t136.5 -105t52 -169q0 -46 -11.5 -89t-39.5 -85t-54.5 -74.5t-78 -77.5t-86 -73 t-101.5 -80l-225 -180h645v-82h-762z" />
<glyph unicode="3" horiz-adv-x="903" d="M41 -344l14 86q141 -31 262 -31q177 0 275 90.5t98 243.5q0 71 -28 124t-77 83.5t-110 45.5t-133 15q-51 0 -109 -4v84q46 4 93 4q94 0 153 -12q83 64 133 152.5t50 173.5q0 130 -83.5 192t-209.5 62q-133 0 -275 -43l-10 84q138 43 281 43q171 0 281 -85.5t110 -250.5 q0 -96 -54 -190.5t-135 -168.5q100 -33 159.5 -113t59.5 -192q0 -186 -124 -304t-336 -118q-140 0 -285 29z" />
<glyph unicode="4" horiz-adv-x="1122" d="M82 104q208 553 354 932h99q-58 -155 -177 -467.5t-178 -468.5h578v404l12 151h78v-553h209v-84h-209v-372l-64 -2h-26v374h-668z" />
<glyph unicode="5" horiz-adv-x="995" d="M106 -334l15 86q164 -41 285 -41q74 0 138 17.5t119 55.5t87 108.5t32 166.5q0 78 -19 136t-50.5 92.5t-78 55.5t-94 28.5t-106.5 7.5h-264v641h672l-4 -84h-580v-473h199q422 0 422 -385q0 -114 -36.5 -202t-102 -141.5t-150.5 -80.5t-187 -27q-167 0 -297 39z" />
<glyph unicode="6" horiz-adv-x="1105" d="M135 629q0 231 70.5 403.5t209.5 268.5t330 96q87 0 173 -17l-13 -88q-86 19 -153 19q-230 0 -365 -159.5t-149 -438.5q204 92 366 92q84 0 153 -22.5t123.5 -69t84.5 -124.5t30 -181q0 -86 -26 -163t-76 -137.5t-130 -96.5t-179 -36q-217 0 -333 167.5t-116 486.5z M233 633q0 -153 26 -265t75 -179.5t114 -99.5t148 -32q143 0 223 95.5t80 250.5t-79 236.5t-238 81.5q-79 0 -172.5 -24t-176.5 -64z" />
<glyph unicode="7" horiz-adv-x="921" d="M76 1020h778v-74l-590 -1308h-96l588 1298h-674z" />
<glyph unicode="8" horiz-adv-x="1101" d="M141 330q0 198 215 395q-36 17 -67 41t-62 60.5t-49 89t-18 114.5q0 163 112 265t277 102q182 0 287.5 -96.5t105.5 -260.5q0 -174 -186 -372q100 -43 153.5 -125t53.5 -195q0 -172 -118 -272.5t-296 -100.5q-180 0 -294 94t-114 261zM240 344q0 -125 81.5 -206 t227.5 -81t230.5 80.5t84.5 208.5q0 63 -19.5 111.5t-58.5 82t-83.5 56t-108.5 43.5l-172 57q-82 -74 -132 -166.5t-50 -185.5zM256 1036q0 -109 63.5 -172.5t196.5 -109.5l164 -58q166 169 166 336q0 133 -80 207t-221 74q-121 0 -205 -75t-84 -202z" />
<glyph unicode="9" horiz-adv-x="1069" d="M90 616q0 85 26.5 162t76.5 138t130 97t179 36q217 0 332.5 -168t115.5 -486q0 -231 -70.5 -403t-209.5 -267.5t-330 -95.5q-98 0 -172 17l12 88q79 -21 154 -21q230 0 365 159t149 437q-204 -92 -367 -92q-84 0 -153 23t-123.5 69.5t-84.5 124.5t-30 182zM186 618 q0 -155 78.5 -236t237.5 -81q169 0 350 88q0 298 -96.5 436t-266.5 138q-143 0 -223 -95t-80 -250z" />
<glyph unicode=":" horiz-adv-x="557" d="M221 0v152h115v-152h-115zM221 657v152h115v-152h-115z" />
<glyph unicode=";" horiz-adv-x="559" d="M180 -188q26 47 37 67.5t23.5 56.5t17.5 72l-37 6v138h115q4 -20 4 -78q0 -79 -25.5 -147t-76.5 -146zM221 657v152h115v-152h-115z" />
<glyph unicode="&#x3c;" horiz-adv-x="1228" d="M139 459v133q10 4 901 422v-101l-839 -387q367 -172 839 -389v-100q-892 418 -901 422z" />
<glyph unicode="=" horiz-adv-x="1228" d="M180 354v84h869v-84h-869zM180 651v86h869v-86h-869z" />
<glyph unicode="&#x3e;" horiz-adv-x="1228" d="M186 37v100q623 288 838 389l-838 387v101q891 -418 901 -422v-133q-9 -4 -901 -422z" />
<glyph unicode="?" horiz-adv-x="790" d="M84 1348q149 49 283 49q93 0 163 -24.5t110 -67t59.5 -92.5t19.5 -107q0 -78 -23.5 -138t-61.5 -98t-83.5 -69t-91 -60t-83.5 -62t-61.5 -84t-23.5 -116q0 -46 20 -121l-94 25q-14 63 -14 119q0 66 23.5 119t61 89t82.5 67l90 62t82.5 65t61 84t23.5 112q0 87 -65 148 t-204 61q-108 0 -260 -49zM225 0v168l109 -31v-137h-109z" />
<glyph unicode="@" horiz-adv-x="1662" d="M84 432q0 164 43 304t117.5 239.5t174.5 170t214.5 104.5t236.5 34q162 0 293.5 -50t216.5 -137t130.5 -202t45.5 -246q0 -165 -47.5 -290.5t-149 -200t-245.5 -74.5q-82 0 -119.5 36.5t-33.5 137.5q-151 -139 -277 -139q-80 0 -136 64.5t-56 193.5q0 214 101 347.5 t277 133.5q118 0 250 -57q-14 -88 -41 -263.5t-41 -263.5q-10 -61 8.5 -88.5t79.5 -27.5q68 0 127.5 27t109 82t78.5 148.5t29 215.5q0 182 -79 313t-213.5 195.5t-309.5 64.5q-161 0 -294.5 -62t-221 -168t-135 -245.5t-47.5 -296.5q0 -344 188 -536.5t533 -192.5 q84 0 194 29l15 -78q-107 -29 -219 -29q-179 0 -324.5 50.5t-251.5 149t-163.5 253t-57.5 354.5zM578 389q0 -106 30.5 -148t93.5 -42q121 0 265 153l61 398q-82 32 -158 32q-95 0 -162.5 -56.5t-98.5 -143.5t-31 -193z" />
<glyph unicode="A" horiz-adv-x="1155" d="M35 0l473 1372h133l479 -1372h-108l-94 276h-685l-94 -276h-104zM258 360h631l-314 926z" />
<glyph unicode="B" horiz-adv-x="1175" d="M201 0v1372h360q196 0 309 -78t113 -247q0 -90 -46 -178t-114 -156q104 -33 168 -118t64 -202q0 -188 -126.5 -290.5t-326.5 -102.5h-401zM299 86h303q162 0 255 76.5t93 230.5q0 118 -75.5 191t-182.5 73h-393v-571zM299 741h438q60 55 101 137.5t41 161.5 q0 246 -320 246h-260v-545z" />
<glyph unicode="C" horiz-adv-x="1191" d="M121 698q0 316 178.5 507.5t464.5 191.5q127 0 299 -47l-25 -385l-90 2q15 264 19 313q-118 31 -219 31q-79 0 -153.5 -22.5t-142 -71t-118 -119t-80 -173.5t-29.5 -227q0 -139 27.5 -249t75 -182t114.5 -119t142.5 -67t163.5 -20q70 0 160.5 17t152.5 43l29 -86 q-190 -60 -357 -60q-129 0 -232.5 36.5t-173.5 101.5t-117 156.5t-68 198t-21 230.5z" />
<glyph unicode="D" horiz-adv-x="1335" d="M201 0v1372h389q142 0 253.5 -39t194 -120t126.5 -214.5t44 -314.5q0 -177 -44.5 -310t-127.5 -214t-194.5 -120.5t-251.5 -39.5h-389zM299 88h289q267 0 391.5 152.5t124.5 443.5q0 602 -516 602h-289v-1198z" />
<glyph unicode="E" horiz-adv-x="1073" d="M201 0v1372h766l-6 -86h-662v-536h555v-86h-555v-578h653l9 -86h-760z" />
<glyph unicode="F" horiz-adv-x="1024" d="M201 0v1372h757l-8 -86h-651v-555h553v-86h-553v-645h-98z" />
<glyph unicode="G" horiz-adv-x="1325" d="M119 698q0 317 186.5 508t493.5 191q167 0 319 -56q-4 -16 -10 -47.5t-10 -46.5q-144 56 -279 62q-89 0 -171 -19.5t-160.5 -65t-136.5 -114t-93 -174.5t-35 -238q0 -137 28.5 -246t78 -181t118.5 -120t146.5 -69t165.5 -21q193 0 346 72v395l86 13h12v-467 q-217 -99 -461 -99q-156 0 -276 53.5t-195.5 150.5t-114 228t-38.5 291z" />
<glyph unicode="H" horiz-adv-x="1417" d="M201 0v1372h98v-629h819v629h99v-1372h-99v655h-819v-655h-98z" />
<glyph unicode="I" horiz-adv-x="741" d="M88 0v82h231v1206h-231v84h569v-84h-239v-1206h239v-82h-569z" />
<glyph unicode="J" horiz-adv-x="575" d="M47 1290v82h328v-1141q0 -91 -3 -150.5t-13.5 -118.5t-28 -98.5t-49 -82t-73.5 -79t-104 -79.5q-12 17 -47 72q82 58 127 109.5t68.5 120.5t23.5 167v1198h-229z" />
<glyph unicode="K" horiz-adv-x="1060" d="M201 0v1372h98v-696l557 696h125l-567 -696l630 -676h-135l-610 659v-659h-98z" />
<glyph unicode="L" horiz-adv-x="864" d="M201 0v1372h98v-1286h543l12 -86h-653z" />
<glyph unicode="M" horiz-adv-x="1685" d="M201 0v1372h168l479 -1253l479 1253h158v-1372h-96v1280h-9q-60 -168 -131 -373l-352 -913h-100l-359 913q-28 80 -133 373h-8v-1280h-96z" />
<glyph unicode="N" horiz-adv-x="1413" d="M201 0v1372h147l766 -1255v1255h98v-1372h-137l-776 1262v-1262h-98z" />
<glyph unicode="O" d="M123 684q0 331 160 522t432 191q271 0 430.5 -191.5t159.5 -521.5q0 -329 -160 -519t-430 -190q-271 0 -431.5 191.5t-160.5 517.5zM227 684q0 -152 38.5 -272.5t106 -196t155 -115t188.5 -39.5q100 0 186.5 39.5t154 114.5t106 196t38.5 273q0 154 -39 276t-106.5 197.5 t-154 114.5t-185.5 39q-100 0 -187 -39t-155 -114.5t-107 -197.5t-39 -276z" />
<glyph unicode="P" horiz-adv-x="1052" d="M201 0v1372h344q198 0 312 -104t114 -310q0 -204 -115 -313.5t-311 -109.5h-246v-535h-98zM299 621h248q158 0 238.5 88.5t80.5 248.5q0 328 -319 328h-248v-665z" />
<glyph unicode="Q" d="M123 684q0 331 160 522t430 191q272 0 432 -191.5t160 -521.5t-160 -519.5t-432 -189.5q-269 0 -429.5 191.5t-160.5 517.5zM227 684q0 -152 38.5 -273t105 -196t154 -114.5t188.5 -39.5q100 0 187 39t154.5 114t106.5 196t39 274t-39 275t-107 197.5t-155 115t-186 39.5 q-100 0 -187 -39.5t-154 -115t-106 -197t-39 -275.5zM541 -215l10 86l713 -102l-13 -86z" />
<glyph unicode="R" horiz-adv-x="1146" d="M201 0v1372h364q193 0 299.5 -99.5t106.5 -271.5q0 -68 -19 -129t-55.5 -112.5t-69.5 -87t-79 -76.5l339 -596h-114l-326 573h-348v-573h-98zM299 657h391q176 152 176 338q0 127 -74 209t-219 82h-274v-629z" />
<glyph unicode="S" horiz-adv-x="997" d="M113 6l8 94q163 -39 289 -39q167 0 276 74.5t109 214.5q0 65 -37 117t-96 87.5t-130 68t-142 68.5t-130 79.5t-96 111t-37 152.5q0 176 120.5 269.5t319.5 93.5q142 0 267 -33q-11 -87 -11 -94q-121 41 -272 41q-64 0 -119.5 -15t-101.5 -47t-72.5 -87.5t-26.5 -129.5 q0 -66 37 -118.5t96 -89t130 -69.5t142 -68.5t130 -77.5t96 -106.5t37 -144.5q0 -99 -40.5 -174.5t-111.5 -120t-159 -66.5t-191 -22q-94 0 -284 31z" />
<glyph unicode="T" horiz-adv-x="978" d="M25 1286v86h938l-11 -86h-413v-1286h-99v1286h-415z" />
<glyph unicode="U" horiz-adv-x="1339" d="M188 451v921h99v-932q0 -94 31.5 -168t85.5 -119.5t122 -68.5t144 -23t144 23t122.5 68t86.5 119.5t32 168.5v932h98v-921q0 -224 -135.5 -350t-347.5 -126q-213 0 -347.5 126t-134.5 350z" />
<glyph unicode="V" horiz-adv-x="1150" d="M33 1372h106l439 -1300l434 1300h106l-473 -1388h-133z" />
<glyph unicode="W" horiz-adv-x="1773" d="M84 1372h102l228 -1001l57 -279h10l70 279l272 1001h131l338 -1280h11l57 279l227 1001h103l-320 -1384h-141l-271 995l-67 295h-6l-72 -295l-274 -995h-136z" />
<glyph unicode="X" horiz-adv-x="1130" d="M57 0l445 700l-426 672h121l374 -602l373 602h113l-424 -680l436 -692h-117l-387 623l-391 -623h-117z" />
<glyph unicode="Y" horiz-adv-x="1021" d="M29 1372h112l371 -780l373 780h108l-434 -883v-489h-98v489z" />
<glyph unicode="Z" horiz-adv-x="1103" d="M80 96l821 1190h-778v86h876l5 -96l-818 -1190h815l9 -86h-918z" />
<glyph unicode="[" horiz-adv-x="536" d="M186 -313v1753h295v-78h-211v-1595h232v-80h-316z" />
<glyph unicode="\" horiz-adv-x="712" d="M68 1393h94l497 -1860h-90z" />
<glyph unicode="]" horiz-adv-x="538" d="M37 -233h229v1595h-209v78h295v-1753h-315v80z" />
<glyph unicode="^" horiz-adv-x="1040" d="M184 840l285 532h104l283 -532h-98l-232 452h-10l-235 -452h-97z" />
<glyph unicode="_" horiz-adv-x="860" d="M47 -137h766v-82h-766v82z" />
<glyph unicode="`" horiz-adv-x="1038" d="M305 1298l53 66l265 -203l-45 -61z" />
<glyph unicode="a" horiz-adv-x="931" d="M96 238q0 103 70 177t215 95l303 41v84q0 138 -65.5 196t-182.5 58q-131 0 -272 -58l-10 87q59 22 145 38.5t152 16.5q70 0 126 -17.5t101.5 -55t70.5 -105t25 -160.5v-633l-74 -14h-14v129h-2q-86 -66 -164.5 -100.5t-169.5 -34.5q-104 0 -179 68t-75 188zM193 242 q0 -77 50 -129t136 -52q131 0 305 134v282l-293 -43q-99 -15 -148.5 -65t-49.5 -127z" />
<glyph unicode="b" horiz-adv-x="1081" d="M164 16v1446l78 31h14v-649q86 61 169 95t185 34q76 0 139 -25t113.5 -78t78.5 -145.5t28 -218.5q0 -261 -133.5 -396t-362.5 -135q-120 0 -309 41zM256 86q108 -29 221 -29q185 0 290 109.5t105 329.5q0 199 -68.5 296t-213.5 97q-161 0 -334 -133v-670z" />
<glyph unicode="c" horiz-adv-x="935" d="M111 481q0 236 128.5 364t356.5 128q99 0 235 -35l-10 -88q-123 39 -235 39q-79 0 -144.5 -21.5t-119 -67.5t-83.5 -125.5t-30 -187.5q0 -99 19.5 -174.5t52.5 -123t82 -77.5t103 -41.5t120 -11.5q148 0 262 43l8 -86q-143 -41 -281 -41q-237 0 -350.5 132t-113.5 374z " />
<glyph unicode="d" horiz-adv-x="1095" d="M113 449q0 245 122.5 384.5t352.5 139.5q111 0 250 -41v530l77 31h13v-1491l-78 -12h-12v129q-178 -144 -357 -144q-168 0 -268 116t-100 358zM209 457q0 -400 289 -400q167 0 340 156v631q-149 45 -252 45q-96 0 -169 -32.5t-118 -91t-67.5 -136t-22.5 -172.5z" />
<glyph unicode="e" horiz-adv-x="1013" d="M111 483q0 216 118 353t308 137q92 0 163.5 -30.5t114.5 -84t64.5 -121t21.5 -145.5q0 -65 -10 -127h-682q0 -198 96 -302t285 -104q140 0 278 60v-90q-154 -54 -297 -54q-220 0 -340 128t-120 380zM211 545h588q0 5 1 18t1 21q0 138 -65.5 221.5t-203.5 83.5 q-127 0 -217 -90t-104 -254z" />
<glyph unicode="f" horiz-adv-x="673" d="M80 868v62l127 18v154v18q0 92 27 164q31 80 84.5 127t119 70.5t137.5 23.5q83 0 181 -20l-11 -86q-83 22 -170 22q-54 0 -101.5 -17t-88 -51.5t-64.5 -94.5t-24 -140v-170h336v-80h-336v-868h-90v868h-127z" />
<glyph unicode="g" horiz-adv-x="1046" d="M115 -307q0 62 40 138.5t113 139.5q-30 11 -50.5 42.5t-20.5 74.5q0 112 102 219q-81 41 -124.5 121t-43.5 188q0 152 102.5 254.5t268.5 102.5q80 0 168 -31h342v-74h-254q55 -55 78.5 -127t23.5 -125q0 -168 -103.5 -262t-264.5 -94q-64 0 -130 19q-31 -32 -55 -79 t-24 -89q0 -80 123 -80q41 0 130 2t136 2q137 0 220 -60t83 -190q0 -49 -14 -94t-48 -88.5t-86.5 -75t-136.5 -51t-190 -19.5q-210 0 -297.5 60t-87.5 176zM209 -293q0 -87 71.5 -127.5t227.5 -40.5q174 0 273.5 63.5t99.5 172.5q0 166 -209 172q-218 4 -340 4 q-60 -57 -91.5 -122.5t-31.5 -121.5zM225 616q0 -142 76.5 -209t190.5 -67q74 0 133.5 25.5t100 89.5t40.5 161q0 128 -75 203.5t-189 75.5q-116 0 -196.5 -72t-80.5 -207z" />
<glyph unicode="h" horiz-adv-x="1093" d="M170 0v1473l80 20h12v-672q121 79 211 115.5t176 36.5q125 0 205 -76.5t80 -232.5v-664h-90v647q0 123 -56 182.5t-145 59.5q-153 0 -381 -152v-737h-92z" />
<glyph unicode="i" horiz-adv-x="425" d="M160 1253v170h106v-147zM168 0v946l80 19h10v-965h-90z" />
<glyph unicode="j" horiz-adv-x="425" d="M-23 -463q107 107 149 201.5t42 224.5v983l78 19h12v-994q-1 -102 -17.5 -176.5t-69.5 -157.5t-148 -163q-15 19 -46 63zM160 1253v170h106v-147z" />
<glyph unicode="k" horiz-adv-x="886" d="M170 0v1462l78 31h14v-1004l408 457h123l-416 -457l473 -489h-121l-467 483v-483h-92z" />
<glyph unicode="l" horiz-adv-x="432" d="M170 0v1462l78 31h14v-1493h-92z" />
<glyph unicode="m" horiz-adv-x="1695" d="M168 0v946l72 19h14l4 -146q214 154 369 154q200 0 250 -166q129 87 213 126.5t176 39.5q129 0 199.5 -76.5t70.5 -222.5v-674h-90v643q0 132 -46 189t-145 57q-71 0 -156.5 -36t-207.5 -118q6 -37 6 -86v-649h-90v659q-3 124 -49 177t-142 53q-73 0 -147 -33t-209 -119 v-737h-92z" />
<glyph unicode="n" horiz-adv-x="1089" d="M168 0v946l70 19h14l4 -144q123 79 213.5 115.5t177.5 36.5q124 0 203.5 -76.5t79.5 -232.5v-664h-90v647q0 124 -55 183t-146 59q-153 0 -381 -152v-737h-90z" />
<glyph unicode="o" horiz-adv-x="1116" d="M111 473q0 230 115 365t331 135q218 0 333.5 -135t115.5 -365q0 -229 -115.5 -363.5t-333.5 -134.5q-216 0 -331 134.5t-115 363.5zM207 473q0 -208 96 -312t256 -104t255 104t95 312t-95 312t-255 104t-256 -104t-96 -312z" />
<glyph unicode="p" horiz-adv-x="1107" d="M168 -537v1483l80 19h12v-148q90 76 178 116t191 40q168 0 267 -115t99 -356q0 -246 -118.5 -386.5t-341.5 -140.5q-104 0 -275 48v-543l-80 -17h-2h-10zM260 106q164 -49 275 -49q183 0 273.5 120t90.5 317q0 395 -287 395q-170 0 -352 -168v-615z" />
<glyph unicode="q" horiz-adv-x="1079" d="M113 446q0 263 132.5 395t362.5 132q149 0 307 -43v-1448l-77 -19h-13v637q-180 -125 -342 -125q-80 0 -145.5 25.5t-117 79.5t-79.5 147t-28 219zM207 455q0 -199 71.5 -298.5t221.5 -99.5q158 0 325 133v670q-108 29 -221 29q-187 0 -292 -107t-105 -327z" />
<glyph unicode="r" horiz-adv-x="647" d="M168 0v946l72 19h12l4 -191q65 102 143.5 142t178.5 40q5 0 15.5 -1t16.5 -1v-28l-2 -62h-20q-103 0 -181.5 -43.5t-148.5 -161.5v-659h-90z" />
<glyph unicode="s" horiz-adv-x="821" d="M113 0l4 88q128 -29 215 -29q297 0 297 185q0 48 -28.5 85t-73.5 60.5t-100 44t-110 44.5t-100 53.5t-73.5 78t-28.5 111.5q0 124 93 188t249 64q75 0 217 -27l-6 -86q-117 29 -195 29h-18q-244 0 -244 -164q0 -47 28.5 -83.5t73.5 -60t100 -45t110 -45t100 -52.5 t73.5 -75t28.5 -106q0 -76 -30.5 -132.5t-84.5 -88.5t-119.5 -47t-144.5 -15q-102 0 -233 25z" />
<glyph unicode="t" horiz-adv-x="643" d="M76 866v64l125 18v262l80 15h8v-277h311v-82h-309v-684q0 -42 12 -69t35 -38.5t42 -14.5t48 -3q48 0 133 25l8 -80q-110 -27 -168 -27q-38 0 -64.5 4.5t-54 20t-44 42.5t-27 74.5t-10.5 114.5v635h-125z" />
<glyph unicode="u" horiz-adv-x="1089" d="M158 283v659l84 16h8v-659q0 -242 199 -242q152 0 380 152v733l82 16h11v-958l-78 -12h-13v137q-122 -78 -212.5 -114t-176.5 -36q-125 0 -204.5 76t-79.5 232z" />
<glyph unicode="v" horiz-adv-x="890" d="M47 948h103l292 -870h9l292 870h101l-336 -960h-125z" />
<glyph unicode="w" horiz-adv-x="1406" d="M72 948h98l217 -864l258 864h115l258 -864h4l217 864h96l-256 -966h-118l-261 866l-260 -866h-114z" />
<glyph unicode="x" horiz-adv-x="948" d="M68 0l344 487l-332 461h115l280 -399l281 399h112l-338 -469l351 -479h-111l-305 422l-287 -422h-110z" />
<glyph unicode="y" horiz-adv-x="874" d="M49 948h101l280 -852h10l283 852h102l-327 -962q-71 -210 -136 -314.5t-202 -201.5l-54 69q106 79 164.5 155t87.5 163l43 129h-22z" />
<glyph unicode="z" horiz-adv-x="933" d="M90 96l631 770h-602v82h696l16 -92l-636 -774h632l9 -82h-725z" />
<glyph unicode="{" horiz-adv-x="610" d="M53 469v84h39q89 0 134.5 66t45.5 178q0 72 -22.5 221t-22.5 225q0 157 79 230t237 73q43 0 137 -12q-8 -55 -10 -80q-80 10 -131 10q-115 0 -170.5 -50t-55.5 -165q0 -75 21.5 -229.5t21.5 -239.5q0 -206 -147 -268q147 -70 147 -270q0 -85 -21.5 -238.5t-21.5 -228.5 q0 -115 56.5 -165t169.5 -50q83 0 131 12q2 -27 10 -82q-94 -12 -137 -12q-158 0 -237 73t-79 230q0 76 22.5 224t22.5 220q0 118 -48 181t-144 63h-27z" />
<glyph unicode="|" horiz-adv-x="446" d="M182 -489v2035h82v-2035h-82z" />
<glyph unicode="}" horiz-adv-x="612" d="M-68 -510q0 5 11 82q48 -12 129 -12q115 0 170 50t55 165q0 75 -21.5 228.5t-21.5 238.5q0 206 147 268q-147 69 -147 270q0 85 21.5 239.5t21.5 229.5q0 115 -55 165t-170 50q-49 0 -129 -10q-10 68 -11 80q90 12 138 12q157 0 235 -73t78 -230q0 -76 -22.5 -225 t-22.5 -221q0 -115 46 -179.5t134 -64.5h41v-84h-41q-88 0 -134 -64t-46 -180q0 -72 22.5 -220t22.5 -224q0 -157 -78 -230t-235 -73q-48 0 -138 12z" />
<glyph unicode="~" horiz-adv-x="1318" d="M182 584q129 63 258 63q100 0 263 -40t231 -40q96 0 178 39l25 -80q-103 -49 -211 -49q-94 0 -257 40t-239 40q-119 0 -229 -59z" />
<glyph unicode="&#xa1;" horiz-adv-x="389" d="M139 -225l11 952l90 -27l8 -925h-109zM141 1020v127h107v-174z" />
<glyph unicode="&#xa2;" horiz-adv-x="923" d="M88 512q0 224 114.5 359.5t315.5 152.5v152h78v-148q115 -6 217 -33q-3 -22 -16 -90q-122 35 -226 35q-78 0 -145.5 -24.5t-122 -74.5t-86 -134.5t-31.5 -194.5q0 -101 19.5 -179t53.5 -129t82.5 -84t103.5 -47t120 -14q135 0 260 41l19 -84q-119 -33 -248 -39v-145h-78 v145q-221 12 -325.5 151t-104.5 384z" />
<glyph unicode="&#xa3;" horiz-adv-x="1021" d="M70 0l16 76q110 8 179 87.5t69 231.5v236h-217v76h217v137q0 121 30.5 214t89 155.5t133 102.5t171.5 64l16 -80q-82 -20 -142 -51t-109 -83.5t-74 -134.5t-25 -193v-131h401v-76h-401v-217q0 -117 -34.5 -199t-113.5 -139h676v-76h-882z" />
<glyph unicode="&#xa4;" horiz-adv-x="991" d="M98 188l152 152q-53 79 -53 174q0 94 51 170v2l-150 152l74 71q29 -30 84 -84t68 -67q77 57 174 57q84 0 174 -55l147 149l74 -71l-152 -150q58 -81 58 -174q0 -71 -43 -152l-13 -24q22 -23 46.5 -47.5t55.5 -55t48 -47.5l-72 -71l-153 149q-76 -51 -170 -51 q-100 0 -174 55q-13 -13 -69 -68t-85 -85zM291 516q0 -90 59 -151.5t148 -61.5t148 61.5t59 151.5q0 89 -59 150t-148 61t-148 -61t-59 -150z" />
<glyph unicode="&#xa5;" horiz-adv-x="1067" d="M53 1372h113l371 -780l372 780h109l-391 -786h317v-78h-352l-8 -19v-122h360v-76h-360v-291h-99v291h-362v76h362v122l-10 19h-352v78h319z" />
<glyph unicode="&#xa6;" horiz-adv-x="462" d="M190 377h82v-866h-82v866zM190 750v796h82v-796h-82z" />
<glyph unicode="&#xa7;" horiz-adv-x="825" d="M88 -264l8 84q150 -31 246 -31q121 0 200 57t79 154q0 82 -54.5 125t-199.5 98q-40 15 -72 29.5t-72.5 40.5t-67.5 55t-46 72.5t-19 93.5q0 139 117 213q-109 84 -109 205q0 127 99 200.5t254 73.5q120 0 223 -28l-12 -82q-106 28 -213 28q-48 0 -90.5 -9t-80.5 -29.5 t-60.5 -58.5t-22.5 -91q0 -47 23 -84.5t60 -62t84.5 -48t97.5 -41.5t97.5 -43.5t84.5 -54t60 -72t23 -98.5q0 -134 -113 -229q103 -74 103 -187q0 -77 -31.5 -137t-86.5 -96.5t-124.5 -55t-150.5 -18.5q-99 0 -234 27zM184 522q0 -46 17.5 -81t56 -62t75.5 -44.5t99 -41.5 q78 -32 109 -47q90 68 90 170q0 37 -11 65t-27.5 46t-52 37.5t-66.5 33t-90 38t-105 46.5q-95 -52 -95 -160z" />
<glyph unicode="&#xa8;" horiz-adv-x="872" d="M205 1122v113h125v-113h-125zM539 1122v113h127v-113h-127z" />
<glyph unicode="&#xa9;" horiz-adv-x="1599" d="M84 684q0 145 57 277t153 227t228 151t277 56q146 0 278.5 -56t228.5 -151t153 -227t57 -277t-57 -276.5t-153 -226t-228.5 -150.5t-278.5 -56q-145 0 -277 56t-228 150.5t-153 226t-57 276.5zM166 684q0 -130 50 -247.5t134.5 -202.5t201.5 -135t247 -50t247.5 50 t202.5 135t135 202.5t50 247.5t-50 247.5t-135 202.5t-202.5 135t-247.5 50t-247 -50t-201.5 -135t-134.5 -202.5t-50 -247.5zM451 692q0 186 105.5 297t277.5 111q68 0 190 -31l-18 -227l-64 4l12 170q-70 16 -131 16q-57 0 -108 -19.5t-93.5 -58.5t-68 -106.5 t-25.5 -155.5q0 -97 23.5 -167t65.5 -109t92.5 -56.5t113.5 -17.5q43 0 102 10.5t97 24.5l14 -64q-113 -37 -223 -37q-94 0 -165 32t-113.5 89.5t-63 131.5t-20.5 163z" />
<glyph unicode="&#xaa;" horiz-adv-x="731" d="M119 913q0 149 225 181l162 24v60q0 79 -38.5 112t-119.5 33q-67 0 -180 -37l-6 68q102 32 190 32q119 0 174.5 -47.5t55.5 -164.5v-414q-28 -2 -66 -10h-8v79q-116 -88 -215 -88q-73 0 -123.5 45.5t-50.5 126.5zM199 918q0 -54 30 -82.5t78 -28.5q89 0 199 82v170 l-144 -23q-89 -14 -126 -40t-37 -78z" />
<glyph unicode="&#xab;" horiz-adv-x="780" d="M86 547l246 418l61 -41q-143 -245 -223 -377l225 -379l-63 -41zM350 547l246 418l61 -41q-143 -245 -223 -377l225 -379l-63 -41z" />
<glyph unicode="&#xac;" horiz-adv-x="1189" d="M125 510v84h940v-430q-15 0 -42.5 1t-41.5 1v344h-856z" />
<glyph unicode="&#xad;" horiz-adv-x="884" d="M150 469v86h585v-86h-585z" />
<glyph unicode="&#xae;" horiz-adv-x="1599" d="M84 684q0 145 57 277t153 227t228 151t277 56q146 0 278.5 -56t228.5 -151t153 -227t57 -277t-57 -276.5t-153 -226t-228.5 -150.5t-278.5 -56q-145 0 -277 56t-228 150.5t-153 226t-57 276.5zM166 684q0 -130 50 -247.5t134.5 -202.5t201.5 -135t247 -50t247.5 50 t202.5 135t135 202.5t50 247.5t-50 247.5t-135 202.5t-202.5 135t-247.5 50t-247 -50t-201.5 -135t-134.5 -202.5t-50 -247.5zM586 297v797h235q121 0 184.5 -57.5t63.5 -157.5q0 -103 -129 -232l201 -350h-92l-181 328h-211v-328h-71zM657 692h240q94 81 94 189 q0 67 -40 107t-124 40h-170v-336z" />
<glyph unicode="&#xaf;" horiz-adv-x="864" d="M172 1147v78h533v-78h-533z" />
<glyph unicode="&#xb0;" horiz-adv-x="620" d="M111 1163q0 93 56 147t142 54q87 0 144 -54t57 -147t-56.5 -145.5t-144.5 -52.5q-86 0 -142 53t-56 145zM176 1163q0 -67 38.5 -103t94.5 -36q58 0 96.5 36t38.5 103q0 69 -38.5 105.5t-96.5 36.5q-56 0 -94.5 -37t-38.5 -105z" />
<glyph unicode="&#xb1;" horiz-adv-x="1228" d="M133 0v80h963v-80h-963zM133 608v82h436v436h86v-436h441v-82h-441v-424h-86v424h-436z" />
<glyph unicode="&#xb2;" horiz-adv-x="880" d="M139 698l33 24q61 44 95 70t95.5 75.5t99 88t77.5 87t59.5 95.5t19.5 91q0 83 -53 130.5t-164 47.5q-119 0 -231 -45l-12 76q125 41 248 41q141 0 221 -63.5t80 -182.5q0 -60 -30 -124t-72.5 -116t-109.5 -111.5t-120.5 -99t-126.5 -90.5h500v-74h-592z" />
<glyph unicode="&#xb3;" horiz-adv-x="802" d="M135 618q4 24 8 76q125 -22 217 -22q108 0 170 45.5t62 128.5q0 44 -21 76t-56.5 49.5t-75 25t-85.5 7.5q-16 0 -88 -5v74q46 4 78 4q67 0 125 -10q40 38 70 93.5t30 105.5q0 71 -52 107t-138 36q-93 0 -207 -31q-8 47 -10 70q115 33 225 33q115 0 192.5 -53.5 t77.5 -153.5q0 -58 -33 -122t-83 -110q63 -25 102 -73.5t39 -114.5q0 -123 -85 -189.5t-232 -66.5q-135 0 -230 20z" />
<glyph unicode="&#xb4;" horiz-adv-x="937" d="M344 1161l264 203l54 -66l-273 -198z" />
<glyph unicode="&#xb6;" horiz-adv-x="1136" d="M55 956q0 207 118 311.5t321 104.5h497v-1245q0 -192 -60.5 -306.5t-203.5 -213.5q-9 13 -24 30.5t-25 32.5q130 97 175.5 185.5t45.5 244.5v1180h-182v-1280h-92v528h-131q-200 0 -319.5 111t-119.5 317z" />
<glyph unicode="&#xb7;" horiz-adv-x="524" d="M205 477v152h114v-152h-114z" />
<glyph unicode="&#xb8;" horiz-adv-x="759" d="M246 -412q16 -2 55 -2q164 0 164 101q0 80 -129 80q-22 0 -43 -3q-35 40 -41 48l94 188h86l-90 -168q0 -2 2 -2q101 0 151 -37.5t50 -103.5q0 -74 -58 -122t-186 -48q-37 0 -53 2z" />
<glyph unicode="&#xb9;" horiz-adv-x="753" d="M135 618v74h225v703h-178v73h258v-776h183v-74h-488z" />
<glyph unicode="&#xba;" horiz-adv-x="827" d="M115 1065q0 151 77 236t222 85t222 -85t77 -236t-77.5 -236.5t-221.5 -85.5t-221.5 85.5t-77.5 236.5zM190 1065q0 -123 58.5 -188.5t165.5 -65.5t165 65t58 189t-58 189t-165 65t-165.5 -65.5t-58.5 -188.5z" />
<glyph unicode="&#xbb;" horiz-adv-x="780" d="M121 168l225 379q-80 132 -223 377q10 8 32 22t29 19l246 -418l-246 -420zM385 168l225 379q-80 132 -223 377q10 8 32 22t30 19l245 -418l-245 -420z" />
<glyph unicode="&#xbc;" horiz-adv-x="1775" d="M72 618v74h239v703h-180v73h260v-776h180v-74h-499zM401 -156l783 1758l78 -33q-685 -1532 -785 -1755zM1042 293q119 310 224 577h86l-222 -575h369v205q1 25 5 75t5 74h72v-354h139v-74h-139v-221h-82v221h-448z" />
<glyph unicode="&#xbd;" horiz-adv-x="1751" d="M66 618v74h239v703h-180v73h260v-776h180v-74h-499zM395 -156l783 1758l77 -33q-78 -175 -355.5 -796.5t-428.5 -958.5zM1071 80q11 8 65.5 48.5t79 58.5t77 61t80 69.5t67 69t59.5 75.5t35.5 72.5t15.5 75.5q0 79 -55.5 130t-163.5 51q-109 0 -231 -48q-8 57 -13 76 q131 43 250 43q139 0 220 -64.5t81 -183.5q0 -43 -16 -88.5t-39.5 -84.5t-63 -83t-74.5 -77.5t-88 -75t-88.5 -67.5t-88.5 -64h499v-74h-592z" />
<glyph unicode="&#xbe;" horiz-adv-x="1755" d="M80 618q4 52 8 76q125 -22 215 -22q108 0 170 45.5t62 128.5q0 44 -20.5 76t-56 49.5t-75 25t-84.5 7.5q-21 0 -88 -5q0 13 -1 37t-1 37q46 4 78 4q70 0 125 -10q40 37 70 92.5t30 106.5q0 71 -51 107t-137 36q-95 0 -209 -31l-11 70q116 33 226 33q115 0 193.5 -53.5 t78.5 -153.5q0 -57 -34 -121t-83 -111q62 -25 101 -73.5t39 -114.5q0 -123 -85.5 -189.5t-232.5 -66.5q-132 0 -227 20zM395 -156l783 1758q38 -18 75 -33q-78 -175 -355.5 -796.5t-428.5 -958.5zM1024 293q156 406 223 577h86l-221 -575h369v205q1 25 5 75t5 74h72v-354 h139v-74h-139v-221h-82v221h-449z" />
<glyph unicode="&#xbf;" horiz-adv-x="768" d="M82 41q0 78 23.5 138t61.5 98t83.5 69t91 60t83.5 62t61.5 84t23.5 116q0 41 -21 120l95 -24q14 -63 14 -119q0 -66 -23.5 -119t-61 -89t-82.5 -67l-90 -62t-82.5 -65t-61 -84t-23.5 -112q0 -87 64.5 -148t203.5 -61q108 0 260 49l15 -88q-149 -49 -283 -49 q-93 0 -163 24.5t-110 67t-59.5 92.5t-19.5 107zM467 1036v111h108v-133z" />
<glyph unicode="&#xc0;" horiz-adv-x="1155" d="M35 0l473 1372h133l479 -1372h-108l-94 276h-685l-94 -276h-104zM258 360h631l-314 926zM422 1708l53 66l264 -203l-45 -62z" />
<glyph unicode="&#xc1;" horiz-adv-x="1155" d="M35 0l473 1372h133l479 -1372h-108l-94 276h-685l-94 -276h-104zM258 360h631l-314 926zM530 1542l265 203l53 -66l-273 -198z" />
<glyph unicode="&#xc2;" horiz-adv-x="1155" d="M35 0l473 1372h133l479 -1372h-108l-94 276h-685l-94 -276h-104zM258 360h631l-314 926zM315 1538l263 207l262 -207l-52 -57l-210 168l-213 -168z" />
<glyph unicode="&#xc3;" horiz-adv-x="1155" d="M35 0l473 1372h133l479 -1372h-108l-94 276h-685l-94 -276h-104zM258 360h631l-314 926zM272 1626q93 55 174 55q55 0 147 -36.5t142 -36.5q65 0 129 37l21 -74q-79 -43 -156 -43q-53 0 -144 37t-143 37q-75 0 -153 -48z" />
<glyph unicode="&#xc4;" horiz-adv-x="1155" d="M35 0l473 1372h133l479 -1372h-108l-94 276h-685l-94 -276h-104zM258 360h631l-314 926zM348 1505v113h125v-113h-125zM682 1505v113h127v-113h-127z" />
<glyph unicode="&#xc5;" horiz-adv-x="1155" d="M35 0l473 1372h133l479 -1372h-108l-94 276h-685l-94 -276h-104zM258 360h631l-314 926zM418 1624q0 69 46 111.5t114 42.5t113.5 -42.5t45.5 -111.5t-46.5 -111.5t-112.5 -42.5q-67 0 -113.5 42.5t-46.5 111.5zM485 1624q0 -44 28 -70t65 -26t64.5 26t27.5 70t-27.5 70 t-64.5 26t-65 -26t-28 -70z" />
<glyph unicode="&#xc6;" horiz-adv-x="1632" d="M25 0l565 1372h938l-8 -86h-635v-536h528v-86h-528v-578h626l11 -86h-736v264h-544l-107 -264h-110zM274 350h512v936h-137z" />
<glyph unicode="&#xc7;" horiz-adv-x="1191" d="M121 698q0 316 178.5 507.5t464.5 191.5q127 0 299 -47l-25 -385l-90 2q15 264 19 313q-118 31 -219 31q-79 0 -153.5 -22.5t-142 -71t-118 -119t-80 -173.5t-29.5 -227q0 -139 27.5 -249t75 -182t114.5 -119t142.5 -67t163.5 -20q70 0 160.5 17t152.5 43l29 -86 q-188 -57 -353 -60l-75 -143q0 -2 2 -2q101 0 150.5 -37.5t49.5 -103.5q0 -74 -57.5 -122t-185.5 -48q-38 0 -54 2l-2 67q16 -2 56 -2q163 0 163 101q0 80 -129 80q-22 0 -43 -3q-35 40 -41 48l84 168q-112 10 -202 52t-151.5 106.5t-102.5 153t-59.5 189.5t-18.5 217z" />
<glyph unicode="&#xc8;" horiz-adv-x="1073" d="M201 0v1372h766l-6 -86h-662v-536h555v-86h-555v-578h653l9 -86h-760zM354 1679l54 66l264 -203l-45 -61z" />
<glyph unicode="&#xc9;" horiz-adv-x="1073" d="M201 0v1372h766l-6 -86h-662v-536h555v-86h-555v-578h653l9 -86h-760zM477 1571l264 203l54 -66l-273 -199z" />
<glyph unicode="&#xca;" horiz-adv-x="1073" d="M201 0v1372h766l-6 -86h-662v-536h555v-86h-555v-578h653l9 -86h-760zM330 1538l262 207l262 -207l-51 -57l-211 168l-213 -168z" />
<glyph unicode="&#xcb;" horiz-adv-x="1073" d="M201 0v1372h766l-6 -86h-662v-536h555v-86h-555v-578h653l9 -86h-760zM356 1505v113h125v-113h-125zM690 1505v113h127v-113h-127z" />
<glyph unicode="&#xcc;" horiz-adv-x="741" d="M88 0v82h231v1206h-231v84h569v-84h-239v-1206h239v-82h-569zM102 1679l54 66l264 -203l-45 -61z" />
<glyph unicode="&#xcd;" horiz-adv-x="741" d="M88 0v82h231v1206h-231v84h569v-84h-239v-1206h239v-82h-569zM332 1542l264 203l53 -66l-272 -198z" />
<glyph unicode="&#xce;" horiz-adv-x="741" d="M88 0v82h231v1206h-231v84h569v-84h-239v-1206h239v-82h-569zM113 1538l262 207l262 -207l-51 -57l-211 168l-213 -168z" />
<glyph unicode="&#xcf;" horiz-adv-x="741" d="M88 0v82h231v1206h-231v84h569v-84h-239v-1206h239v-82h-569zM143 1505v113h125v-113h-125zM477 1505v113h127v-113h-127z" />
<glyph unicode="&#xd0;" horiz-adv-x="1337" d="M53 645v86h191v641h348q142 0 253 -39t194 -120t127 -214.5t44 -314.5q0 -178 -44.5 -311t-128 -213.5t-194.5 -120t-251 -39.5h-348v645h-191zM342 86h248q516 0 516 598q0 602 -516 602h-248v-555h256v-86h-256v-559z" />
<glyph unicode="&#xd1;" horiz-adv-x="1413" d="M201 0v1372h147l766 -1255v1255h98v-1372h-137l-776 1262v-1262h-98zM401 1626q93 55 174 55q55 0 147 -36.5t142 -36.5q65 0 129 37l21 -74q-79 -43 -156 -43q-53 0 -144 37t-143 37q-75 0 -153 -48z" />
<glyph unicode="&#xd2;" d="M123 684q0 331 160 522t432 191q271 0 430.5 -191.5t159.5 -521.5q0 -329 -160 -519t-430 -190q-271 0 -431.5 191.5t-160.5 517.5zM227 684q0 -152 38.5 -272.5t106 -196t155 -115t188.5 -39.5q100 0 186.5 39.5t154 114.5t106 196t38.5 273q0 154 -39 276t-106.5 197.5 t-154 114.5t-185.5 39q-100 0 -187 -39t-155 -114.5t-107 -197.5t-39 -276zM461 1679l53 66l264 -203l-45 -61z" />
<glyph unicode="&#xd3;" d="M123 684q0 331 160 522t432 191q271 0 430.5 -191.5t159.5 -521.5q0 -329 -160 -519t-430 -190q-271 0 -431.5 191.5t-160.5 517.5zM227 684q0 -152 38.5 -272.5t106 -196t155 -115t188.5 -39.5q100 0 186.5 39.5t154 114.5t106 196t38.5 273q0 154 -39 276t-106.5 197.5 t-154 114.5t-185.5 39q-100 0 -187 -39t-155 -114.5t-107 -197.5t-39 -276zM676 1542l264 203l53 -66l-272 -198z" />
<glyph unicode="&#xd4;" d="M123 684q0 331 160 522t432 191q271 0 430.5 -191.5t159.5 -521.5q0 -329 -160 -519t-430 -190q-271 0 -431.5 191.5t-160.5 517.5zM227 684q0 -152 38.5 -272.5t106 -196t155 -115t188.5 -39.5q100 0 186.5 39.5t154 114.5t106 196t38.5 273q0 154 -39 276t-106.5 197.5 t-154 114.5t-185.5 39q-100 0 -187 -39t-155 -114.5t-107 -197.5t-39 -276zM451 1538l262 207l262 -207l-51 -57l-211 168l-213 -168z" />
<glyph unicode="&#xd5;" d="M123 684q0 331 160 522t432 191q271 0 430.5 -191.5t159.5 -521.5q0 -329 -160 -519t-430 -190q-271 0 -431.5 191.5t-160.5 517.5zM227 684q0 -152 38.5 -272.5t106 -196t155 -115t188.5 -39.5q100 0 186.5 39.5t154 114.5t106 196t38.5 273q0 154 -39 276t-106.5 197.5 t-154 114.5t-185.5 39q-100 0 -187 -39t-155 -114.5t-107 -197.5t-39 -276zM408 1626q93 55 174 55q55 0 146.5 -36.5t141.5 -36.5q65 0 129 37l21 -74q-79 -43 -156 -43q-53 0 -143.5 37t-142.5 37q-76 0 -154 -48z" />
<glyph unicode="&#xd6;" d="M123 684q0 331 160 522t432 191q271 0 430.5 -191.5t159.5 -521.5q0 -329 -160 -519t-430 -190q-271 0 -431.5 191.5t-160.5 517.5zM227 684q0 -152 38.5 -272.5t106 -196t155 -115t188.5 -39.5q100 0 186.5 39.5t154 114.5t106 196t38.5 273q0 154 -39 276t-106.5 197.5 t-154 114.5t-185.5 39q-100 0 -187 -39t-155 -114.5t-107 -197.5t-39 -276zM483 1505v113h125v-113h-125zM817 1505v113h127v-113h-127z" />
<glyph unicode="&#xd7;" horiz-adv-x="1228" d="M231 246l324 323l-319 320l59 59l319 -321l318 319l61 -61l-319 -318l321 -321l-59 -58l-320 320l-323 -324z" />
<glyph unicode="&#xd8;" d="M123 684q0 331 160 522t432 191q175 0 309 -84l125 237l76 -34l-133 -256q102 -92 157.5 -239t55.5 -337q0 -329 -160 -519t-430 -190q-142 0 -264 58l-156 -301l-84 39l164 309q-121 90 -186.5 244.5t-65.5 359.5zM227 684q0 -177 51 -307.5t142 -208.5l559 1059 q-115 84 -264 84q-100 0 -187 -39t-155 -114.5t-107 -197.5t-39 -276zM494 115q105 -54 221 -54q100 0 186.5 39.5t154 114.5t106 196t38.5 273q0 315 -158 483z" />
<glyph unicode="&#xd9;" horiz-adv-x="1339" d="M188 451v921h99v-932q0 -94 31.5 -168t85.5 -119.5t122 -68.5t144 -23t144 23t122.5 68t86.5 119.5t32 168.5v932h98v-921q0 -224 -135.5 -350t-347.5 -126q-213 0 -347.5 126t-134.5 350zM451 1679l53 66l264 -203l-45 -61z" />
<glyph unicode="&#xda;" horiz-adv-x="1339" d="M188 451v921h99v-932q0 -94 31.5 -168t85.5 -119.5t122 -68.5t144 -23t144 23t122.5 68t86.5 119.5t32 168.5v932h98v-921q0 -224 -135.5 -350t-347.5 -126q-213 0 -347.5 126t-134.5 350zM610 1542l264 203l54 -66l-273 -198z" />
<glyph unicode="&#xdb;" horiz-adv-x="1339" d="M188 451v921h99v-932q0 -94 31.5 -168t85.5 -119.5t122 -68.5t144 -23t144 23t122.5 68t86.5 119.5t32 168.5v932h98v-921q0 -224 -135.5 -350t-347.5 -126q-213 0 -347.5 126t-134.5 350zM408 1538l262 207l262 -207l-51 -57l-211 168l-213 -168z" />
<glyph unicode="&#xdc;" horiz-adv-x="1339" d="M188 451v921h99v-932q0 -94 31.5 -168t85.5 -119.5t122 -68.5t144 -23t144 23t122.5 68t86.5 119.5t32 168.5v932h98v-921q0 -224 -135.5 -350t-347.5 -126q-213 0 -347.5 126t-134.5 350zM438 1505v113h125v-113h-125zM772 1505v113h127v-113h-127z" />
<glyph unicode="&#xdd;" horiz-adv-x="1021" d="M29 1372h112l371 -780l373 780h108l-434 -883v-489h-98v489zM449 1528l264 203l53 -66l-272 -199z" />
<glyph unicode="&#xde;" horiz-adv-x="1024" d="M201 0v1507h100v-319h217q199 0 312.5 -103.5t113.5 -308.5q0 -206 -114.5 -316t-311.5 -110h-217v-350h-100zM301 436h219q158 0 239 90t81 250q0 326 -320 326h-219v-666z" />
<glyph unicode="&#xdf;" horiz-adv-x="1114" d="M170 -518v1610q0 103 30.5 183.5t82.5 129.5t118 74.5t142 25.5q135 0 232 -80.5t97 -220.5q0 -73 -34.5 -134.5t-83.5 -102.5t-97.5 -77t-83 -76.5t-34.5 -82.5t21.5 -75.5t57 -55.5t80.5 -43.5t92.5 -38.5t92.5 -41.5t80.5 -51.5t57 -68.5t21.5 -92.5 q0 -97 -52.5 -163.5t-135 -96t-186.5 -29.5q-82 0 -224 25l11 84q155 -27 225 -27q61 0 120.5 20t103.5 65.5t44 107.5q0 51 -27.5 88.5t-72 61.5t-98 44.5t-107 43.5t-98 51.5t-72 75t-27.5 108.5q0 43 18.5 82t48 68.5t65 58t71 57.5t65 59.5t48 71t18.5 86.5 q0 102 -72.5 157.5t-164.5 55.5q-123 0 -203 -82t-80 -241v-1614h-90z" />
<glyph unicode="&#xe0;" horiz-adv-x="931" d="M96 238q0 103 70 177t215 95l303 41v84q0 138 -65.5 196t-182.5 58q-131 0 -272 -58l-10 87q59 22 145 38.5t152 16.5q70 0 126 -17.5t101.5 -55t70.5 -105t25 -160.5v-633l-74 -14h-14v129h-2q-86 -66 -164.5 -100.5t-169.5 -34.5q-104 0 -179 68t-75 188zM193 242 q0 -77 50 -129t136 -52q131 0 305 134v282l-293 -43q-99 -15 -148.5 -65t-49.5 -127zM225 1298l54 66l264 -203l-45 -61z" />
<glyph unicode="&#xe1;" horiz-adv-x="931" d="M96 238q0 103 70 177t215 95l303 41v84q0 138 -65.5 196t-182.5 58q-131 0 -272 -58l-10 87q59 22 145 38.5t152 16.5q70 0 126 -17.5t101.5 -55t70.5 -105t25 -160.5v-633l-74 -14h-14v129h-2q-86 -66 -164.5 -100.5t-169.5 -34.5q-104 0 -179 68t-75 188zM193 242 q0 -77 50 -129t136 -52q131 0 305 134v282l-293 -43q-99 -15 -148.5 -65t-49.5 -127zM348 1161l264 203l54 -66l-273 -198z" />
<glyph unicode="&#xe2;" horiz-adv-x="931" d="M96 238q0 103 70 177t215 95l303 41v84q0 138 -65.5 196t-182.5 58q-131 0 -272 -58l-10 87q59 22 145 38.5t152 16.5q70 0 126 -17.5t101.5 -55t70.5 -105t25 -160.5v-633l-74 -14h-14v129h-2q-86 -66 -164.5 -100.5t-169.5 -34.5q-104 0 -179 68t-75 188zM193 242 q0 -77 50 -129t136 -52q131 0 305 134v282l-293 -43q-99 -15 -148.5 -65t-49.5 -127zM195 1176l262 206l262 -206l-51 -58l-211 168l-213 -168z" />
<glyph unicode="&#xe3;" horiz-adv-x="931" d="M96 238q0 103 70 177t215 95l303 41v84q0 138 -65.5 196t-182.5 58q-131 0 -272 -58l-10 87q59 22 145 38.5t152 16.5q70 0 126 -17.5t101.5 -55t70.5 -105t25 -160.5v-633l-74 -14h-14v129h-2q-86 -66 -164.5 -100.5t-169.5 -34.5q-104 0 -179 68t-75 188zM176 1217 q93 55 174 55q55 0 147 -37t142 -37q65 0 129 37l20 -74q-79 -43 -155 -43q-53 0 -144 37t-143 37q-76 0 -153 -47zM193 242q0 -77 50 -129t136 -52q131 0 305 134v282l-293 -43q-99 -15 -148.5 -65t-49.5 -127z" />
<glyph unicode="&#xe4;" horiz-adv-x="931" d="M96 238q0 103 70 177t215 95l303 41v84q0 138 -65.5 196t-182.5 58q-131 0 -272 -58l-10 87q59 22 145 38.5t152 16.5q70 0 126 -17.5t101.5 -55t70.5 -105t25 -160.5v-633l-74 -14h-14v129h-2q-86 -66 -164.5 -100.5t-169.5 -34.5q-104 0 -179 68t-75 188zM193 242 q0 -77 50 -129t136 -52q131 0 305 134v282l-293 -43q-99 -15 -148.5 -65t-49.5 -127zM236 1122v113h124v-113h-124zM569 1122v113h127v-113h-127z" />
<glyph unicode="&#xe5;" horiz-adv-x="931" d="M96 238q0 103 70 177t215 95l303 41v84q0 138 -65.5 196t-182.5 58q-131 0 -272 -58l-10 87q59 22 145 38.5t152 16.5q70 0 126 -17.5t101.5 -55t70.5 -105t25 -160.5v-633l-74 -14h-14v129h-2q-86 -66 -164.5 -100.5t-169.5 -34.5q-104 0 -179 68t-75 188zM193 242 q0 -77 50 -129t136 -52q131 0 305 134v282l-293 -43q-99 -15 -148.5 -65t-49.5 -127zM303 1233q0 69 46 111t114 42t114 -42t46 -111t-46.5 -111.5t-113.5 -42.5t-113.5 42.5t-46.5 111.5zM371 1233q0 -44 27.5 -70t64.5 -26t64.5 26t27.5 70t-27.5 70t-64.5 26t-64.5 -26 t-27.5 -70z" />
<glyph unicode="&#xe6;" horiz-adv-x="1552" d="M96 236q0 104 72 180t217 92l272 31q6 93 19 172q-33 178 -240 178q-129 0 -274 -55q-2 27 -10 86q59 22 145.5 37.5t153.5 15.5q223 0 292 -172q56 82 141.5 127t190.5 45q92 0 163.5 -30.5t114.5 -84t65 -121t22 -145.5q0 -65 -10 -127h-682q0 -91 21 -162t56 -116.5 t85 -74.5t103.5 -41t116.5 -12q139 0 277 60v-90q-154 -54 -297 -54q-254 0 -369 166h-4q-193 -159 -389 -159q-103 0 -177.5 67.5t-74.5 186.5zM193 240q0 -76 49.5 -127.5t134.5 -51.5q139 0 321 140q-41 112 -41 264l-266 -31q-92 -9 -145 -62.5t-53 -131.5zM750 545h587 q0 5 1 21t1 24q0 134 -67 216.5t-201 82.5q-126 0 -216.5 -90t-104.5 -254z" />
<glyph unicode="&#xe7;" horiz-adv-x="935" d="M111 481q0 236 128.5 364t356.5 128q99 0 235 -35l-10 -88q-123 39 -235 39q-79 0 -144.5 -21.5t-119 -67.5t-83.5 -125.5t-30 -187.5q0 -99 19.5 -174.5t52.5 -123t82 -77.5t103 -41.5t120 -11.5q148 0 262 43l8 -86q-143 -41 -281 -41h-2l-75 -143q0 -2 2 -2 q101 0 150.5 -37.5t49.5 -103.5q0 -74 -57.5 -122t-185.5 -48q-38 0 -54 2l-2 67q16 -2 56 -2q164 0 164 101q0 80 -129 80q-22 0 -43 -3q-35 40 -41 48l84 170q-194 23 -287.5 151.5t-93.5 347.5z" />
<glyph unicode="&#xe8;" horiz-adv-x="1013" d="M111 483q0 216 118 353t308 137q92 0 163.5 -30.5t114.5 -84t64.5 -121t21.5 -145.5q0 -65 -10 -127h-682q0 -198 96 -302t285 -104q140 0 278 60v-90q-154 -54 -297 -54q-220 0 -340 128t-120 380zM211 545h588q0 5 1 18t1 21q0 138 -65.5 221.5t-203.5 83.5 q-127 0 -217 -90t-104 -254zM350 1298l53 66l265 -203l-45 -61z" />
<glyph unicode="&#xe9;" horiz-adv-x="1013" d="M111 483q0 216 118 353t308 137q92 0 163.5 -30.5t114.5 -84t64.5 -121t21.5 -145.5q0 -65 -10 -127h-682q0 -198 96 -302t285 -104q140 0 278 60v-90q-154 -54 -297 -54q-220 0 -340 128t-120 380zM211 545h588q0 5 1 18t1 21q0 138 -65.5 221.5t-203.5 83.5 q-127 0 -217 -90t-104 -254zM432 1161l264 203l54 -66l-273 -198z" />
<glyph unicode="&#xea;" horiz-adv-x="1013" d="M111 483q0 216 118 353t308 137q92 0 163.5 -30.5t114.5 -84t64.5 -121t21.5 -145.5q0 -65 -10 -127h-682q0 -198 96 -302t285 -104q140 0 278 60v-90q-154 -54 -297 -54q-220 0 -340 128t-120 380zM211 545h588q0 5 1 18t1 21q0 138 -65.5 221.5t-203.5 83.5 q-127 0 -217 -90t-104 -254zM246 1176l262 206l262 -206l-51 -58l-211 168l-213 -168z" />
<glyph unicode="&#xeb;" horiz-adv-x="1013" d="M111 483q0 216 118 353t308 137q92 0 163.5 -30.5t114.5 -84t64.5 -121t21.5 -145.5q0 -65 -10 -127h-682q0 -198 96 -302t285 -104q140 0 278 60v-90q-154 -54 -297 -54q-220 0 -340 128t-120 380zM211 545h588q0 5 1 18t1 21q0 138 -65.5 221.5t-203.5 83.5 q-127 0 -217 -90t-104 -254zM297 1122v113h125v-113h-125zM631 1122v113h127v-113h-127z" />
<glyph unicode="&#xec;" horiz-adv-x="425" d="M-55 1298l53 66l264 -203l-45 -61zM168 0v950l80 15h10v-965h-90z" />
<glyph unicode="&#xed;" horiz-adv-x="425" d="M156 1161l264 203l53 -66l-272 -198zM168 0v950l80 15h10v-965h-90z" />
<glyph unicode="&#xee;" horiz-adv-x="425" d="M-47 1176l262 206l262 -206l-51 -58l-211 168l-213 -168zM168 0v950l80 15h10v-965h-90z" />
<glyph unicode="&#xef;" horiz-adv-x="425" d="M-16 1122v113h125v-113h-125zM168 0v950l80 15h10v-965h-90zM317 1122v113h127v-113h-127z" />
<glyph unicode="&#xf0;" horiz-adv-x="1103" d="M104 397q0 112 33.5 198.5t92 139t133 79t161.5 26.5q82 0 180 -26.5t177 -70.5q0 317 -187 510l-172 -168l-53 45l174 170q-119 92 -283 148l31 88q197 -70 318 -170l161 160l56 -47l-164 -160q118 -120 167.5 -286t49.5 -400q0 -315 -119 -486.5t-334 -171.5 q-134 0 -231 57.5t-144 151.5t-47 213zM205 397q0 -162 85 -250t230 -88q170 0 265.5 142.5t95.5 447.5q-70 48 -169.5 77.5t-193.5 29.5q-141 0 -227 -96t-86 -263z" />
<glyph unicode="&#xf1;" horiz-adv-x="1089" d="M168 0v946l70 19h14l4 -144q123 79 213.5 115.5t177.5 36.5q124 0 203.5 -76.5t79.5 -232.5v-664h-90v647q0 124 -55 183t-146 59q-153 0 -381 -152v-737h-90zM242 1217q93 55 174 55q55 0 147 -37t142 -37q65 0 129 37l20 -74q-79 -43 -156 -43q-53 0 -143.5 37 t-142.5 37q-77 0 -154 -47z" />
<glyph unicode="&#xf2;" horiz-adv-x="1116" d="M111 473q0 230 115 365t331 135q218 0 333.5 -135t115.5 -365q0 -229 -115.5 -363.5t-333.5 -134.5q-216 0 -331 134.5t-115 363.5zM207 473q0 -208 96 -312t256 -104t255 104t95 312t-95 312t-255 104t-256 -104t-96 -312zM293 1298l53 66l264 -203l-45 -61z" />
<glyph unicode="&#xf3;" horiz-adv-x="1116" d="M111 473q0 230 115 365t331 135q218 0 333.5 -135t115.5 -365q0 -229 -115.5 -363.5t-333.5 -134.5q-216 0 -331 134.5t-115 363.5zM207 473q0 -208 96 -312t256 -104t255 104t95 312t-95 312t-255 104t-256 -104t-96 -312zM485 1161l265 203l53 -66l-273 -198z" />
<glyph unicode="&#xf4;" horiz-adv-x="1116" d="M111 473q0 230 115 365t331 135q218 0 333.5 -135t115.5 -365q0 -229 -115.5 -363.5t-333.5 -134.5q-216 0 -331 134.5t-115 363.5zM207 473q0 -208 96 -312t256 -104t255 104t95 312t-95 312t-255 104t-256 -104t-96 -312zM297 1176l262 206l262 -206l-51 -58l-211 168 l-213 -168z" />
<glyph unicode="&#xf5;" horiz-adv-x="1116" d="M111 473q0 230 115 365t331 135q218 0 333.5 -135t115.5 -365q0 -229 -115.5 -363.5t-333.5 -134.5q-216 0 -331 134.5t-115 363.5zM207 473q0 -208 96 -312t256 -104t255 104t95 312t-95 312t-255 104t-256 -104t-96 -312zM252 1217q93 55 174 55q55 0 147 -37t142 -37 q65 0 129 37l20 -74q-79 -43 -155 -43q-53 0 -144 37t-143 37q-77 0 -154 -47z" />
<glyph unicode="&#xf6;" horiz-adv-x="1116" d="M111 473q0 230 115 365t331 135q218 0 333.5 -135t115.5 -365q0 -229 -115.5 -363.5t-333.5 -134.5q-216 0 -331 134.5t-115 363.5zM207 473q0 -208 96 -312t256 -104t255 104t95 312t-95 312t-255 104t-256 -104t-96 -312zM328 1122v113h125v-113h-125zM662 1122v113 h126v-113h-126z" />
<glyph unicode="&#xf7;" horiz-adv-x="1228" d="M133 506v80h963v-80h-963zM543 156v131h135v-131h-135zM543 805v131h135v-131h-135z" />
<glyph unicode="&#xf8;" horiz-adv-x="1122" d="M115 473q0 230 115 365t331 135q107 0 191 -35l92 180l80 -33l-97 -188q90 -63 136.5 -171.5t46.5 -252.5q0 -229 -115.5 -363.5t-333.5 -134.5q-99 0 -190 33l-103 -201l-75 39l104 203q-90 62 -136 171t-46 253zM211 473q0 -237 127 -342l373 729q-69 29 -148 29 q-160 0 -256 -104t-96 -312zM412 86q65 -29 151 -29q160 0 255 104t95 312q0 236 -129 342z" />
<glyph unicode="&#xf9;" horiz-adv-x="1089" d="M158 283v659l84 16h8v-659q0 -242 199 -242q152 0 380 152v733l82 16h11v-958l-78 -12h-13v137q-122 -78 -212.5 -114t-176.5 -36q-125 0 -204.5 76t-79.5 232zM317 1298l54 66l264 -203l-45 -61z" />
<glyph unicode="&#xfa;" horiz-adv-x="1089" d="M158 283v659l84 16h8v-659q0 -242 199 -242q152 0 380 152v733l82 16h11v-958l-78 -12h-13v137q-122 -78 -212.5 -114t-176.5 -36q-125 0 -204.5 76t-79.5 232zM444 1161l265 203l53 -66l-273 -198z" />
<glyph unicode="&#xfb;" horiz-adv-x="1089" d="M158 283v659l84 16h8v-659q0 -242 199 -242q152 0 380 152v733l82 16h11v-958l-78 -12h-13v137q-122 -78 -212.5 -114t-176.5 -36q-125 0 -204.5 76t-79.5 232zM276 1176l263 206l262 -206l-51 -58l-211 168l-213 -168z" />
<glyph unicode="&#xfc;" horiz-adv-x="1089" d="M158 283v659l84 16h8v-659q0 -242 199 -242q152 0 380 152v733l82 16h11v-958l-78 -12h-13v137q-122 -78 -212.5 -114t-176.5 -36q-125 0 -204.5 76t-79.5 232zM311 1122v113h125v-113h-125zM645 1122v113h127v-113h-127z" />
<glyph unicode="&#xfd;" horiz-adv-x="874" d="M49 948h101l280 -852h10l283 852h102l-327 -962q-71 -210 -136 -314.5t-202 -201.5l-54 69q106 79 164.5 155t87.5 163l43 129h-22zM362 1161l265 203l53 -66l-272 -198z" />
<glyph unicode="&#xfe;" horiz-adv-x="1110" d="M170 -537v2024l80 18h12v-688q90 76 178 116t191 40q168 0 267 -115t99 -356q0 -246 -118.5 -386.5t-341.5 -140.5q-104 0 -275 48v-543l-80 -17h-2h-10zM262 106q164 -49 275 -49q183 0 273.5 120t90.5 317q0 395 -287 395q-170 0 -352 -168v-615z" />
<glyph unicode="&#xff;" horiz-adv-x="874" d="M49 948h101l280 -852h10l283 852h102l-327 -962q-71 -210 -136 -314.5t-202 -201.5l-54 69q106 79 164.5 155t87.5 163l43 129h-22zM199 1122v113h125v-113h-125zM532 1122v113h127v-113h-127z" />
<glyph unicode="&#x152;" horiz-adv-x="1763" d="M125 684q0 334 154 523.5t428 189.5q100 0 186 -25h764l-6 -86h-662v-536h555v-86h-555v-578h653l9 -86h-758q-89 -25 -186 -25q-274 0 -428 190t-154 519zM229 684q0 -152 37 -272t102.5 -196t151.5 -115.5t187 -39.5q107 0 184 35v1180q-74 35 -184 35 q-100 0 -185.5 -39t-151.5 -114.5t-103.5 -197t-37.5 -276.5z" />
<glyph unicode="&#x153;" horiz-adv-x="1800" d="M109 475q0 230 115 365t331 135q144 0 244 -62t153 -174q53 109 150 171.5t221 62.5q92 0 163.5 -30.5t114.5 -84t65 -121t22 -145.5q0 -59 -11 -127h-682q0 -198 96 -302t285 -104q141 0 279 60v-90q-154 -54 -297 -54q-301 0 -408 232q-52 -110 -152 -170t-243 -60 q-216 0 -331 134.5t-115 363.5zM205 475q0 -208 96 -312t256 -104t255 104t95 312t-95 312t-255 104t-256 -104t-96 -312zM997 545h588q0 5 1 18t1 21q0 138 -65.5 221.5t-202.5 83.5q-127 0 -217.5 -90t-104.5 -254z" />
<glyph unicode="&#x178;" horiz-adv-x="1021" d="M29 1372h112l371 -780l373 780h108l-434 -883v-489h-98v489zM281 1505v113h125v-113h-125zM614 1505v113h127v-113h-127z" />
<glyph unicode="&#x2c6;" horiz-adv-x="997" d="M246 1176l262 206l262 -206l-51 -58l-211 168l-213 -168z" />
<glyph unicode="&#x2dc;" horiz-adv-x="1019" d="M217 1217q93 55 174 55q55 0 147 -37t142 -37q65 0 129 37l20 -74q-79 -43 -155 -43q-53 0 -144 37t-143 37q-77 0 -154 -47z" />
<glyph unicode="&#x2000;" horiz-adv-x="889" />
<glyph unicode="&#x2001;" horiz-adv-x="1778" />
<glyph unicode="&#x2002;" horiz-adv-x="889" />
<glyph unicode="&#x2003;" horiz-adv-x="1778" />
<glyph unicode="&#x2004;" horiz-adv-x="592" />
<glyph unicode="&#x2005;" horiz-adv-x="444" />
<glyph unicode="&#x2006;" horiz-adv-x="296" />
<glyph unicode="&#x2007;" horiz-adv-x="296" />
<glyph unicode="&#x2008;" horiz-adv-x="222" />
<glyph unicode="&#x2009;" horiz-adv-x="355" />
<glyph unicode="&#x200a;" horiz-adv-x="98" />
<glyph unicode="&#x2010;" horiz-adv-x="884" d="M150 469v86h585v-86h-585z" />
<glyph unicode="&#x2011;" horiz-adv-x="884" d="M150 469v86h585v-86h-585z" />
<glyph unicode="&#x2012;" horiz-adv-x="884" d="M150 469v86h585v-86h-585z" />
<glyph unicode="&#x2013;" horiz-adv-x="1097" d="M147 508v86h803v-86h-803z" />
<glyph unicode="&#x2014;" horiz-adv-x="1660" d="M147 508v86h1366v-86h-1366z" />
<glyph unicode="&#x2018;" horiz-adv-x="362" d="M123 1296q0 47 17.5 100t35 85t51.5 90l56 -31q-56 -98 -80 -172l37 -4v-133h-115q0 1 -1 20t-1 45z" />
<glyph unicode="&#x2019;" horiz-adv-x="374" d="M113 1094q56 98 80 172l-37 4v133h114q0 -1 1 -20.5t1 -45.5q0 -47 -17.5 -99.5t-34.5 -84t-52 -90.5z" />
<glyph unicode="&#x201a;" horiz-adv-x="458" d="M129 -174q56 98 80 172l-37 4v133h115q0 -1 1 -20t1 -45q0 -47 -18 -100t-35 -84t-52 -91z" />
<glyph unicode="&#x201c;" horiz-adv-x="559" d="M123 1296q0 47 17.5 100t35 85t51.5 90l56 -31q-56 -98 -80 -172l37 -4v-133h-115q0 1 -1 20t-1 45zM319 1296q0 47 18 100t35 84t52 91l55 -31q-56 -98 -80 -172l37 -4v-133h-114q0 1 -1.5 20t-1.5 45z" />
<glyph unicode="&#x201d;" horiz-adv-x="571" d="M113 1094q56 98 80 172l-37 4v133h114q0 -1 1 -20.5t1 -45.5q0 -47 -17.5 -99.5t-34.5 -84t-52 -90.5zM309 1094q56 98 80 172l-37 4v133h115q0 -1 1 -20.5t1 -45.5q0 -47 -17.5 -99.5t-34.5 -84t-52 -90.5z" />
<glyph unicode="&#x201e;" horiz-adv-x="655" d="M129 -174q56 98 80 172l-37 4v133h115q0 -1 1 -20t1 -45q0 -47 -18 -100t-35 -84t-52 -91zM326 -174q56 98 80 172l-37 4v133h114q0 -1 1 -20t1 -45q0 -47 -17.5 -100t-35 -85t-51.5 -90z" />
<glyph unicode="&#x2022;" horiz-adv-x="585" d="M188 535v190h209v-190h-209z" />
<glyph unicode="&#x2026;" horiz-adv-x="1169" d="M170 0v152h115v-152h-115zM526 0v152h115v-152h-115zM885 0v152h114v-152h-114z" />
<glyph unicode="&#x202f;" horiz-adv-x="355" />
<glyph unicode="&#x2039;" horiz-adv-x="514" d="M86 547l246 418l59 -41l-221 -377l223 -379l-61 -41z" />
<glyph unicode="&#x203a;" horiz-adv-x="514" d="M119 168l225 379l-223 377l61 41l246 -418l-246 -420z" />
<glyph unicode="&#x205f;" horiz-adv-x="444" />
<glyph unicode="&#x20ac;" horiz-adv-x="1294" d="M61 526l13 80h170q-2 29 -2 92q0 59 4 88h-131l12 80h129q46 245 215.5 388t413.5 143q133 0 297 -45l-19 -92q-148 51 -295 51q-85 0 -164.5 -27t-149 -80t-120.5 -140t-72 -198h670l-12 -80h-670q-4 -29 -4 -88q0 -63 2 -92h631l-12 -80h-609q19 -125 66 -217 t116.5 -145t150.5 -78t177 -25q70 0 161 17t153 43l28 -86q-190 -60 -356 -60q-138 0 -246 40.5t-179.5 116t-114.5 173.5t-60 221h-193z" />
<glyph unicode="&#x2122;" horiz-adv-x="1308" d="M45 1309v63h457l-6 -63h-189v-537h-71v537h-191zM567 772v600h129l174 -522l174 522h127v-600h-69v537l-191 -541h-82l-190 541h-2v-537h-70z" />
<glyph unicode="&#x25fc;" horiz-adv-x="952" d="M0 0v952h952v-952h-952z" />
</font>
</defs>
</svg>
